<svg width="24" height="24" viewBox="0 0 24 24" fill="none" xmlns="http://www.w3.org/2000/svg">
<path d="M19 2H5C4.20435 2 3.44129 2.31607 2.87868 2.87868C2.31607 3.44129 2 4.20435 2 5V18V19C2 19.7956 2.31607 20.5587 2.87868 21.1213C3.44129 21.6839 4.20435 22 5 22H19C19.7956 22 20.5587 21.6839 21.1213 21.1213C21.6839 20.5587 22 19.7956 22 19V5C22 4.20435 21.6839 3.44129 21.1213 2.87868C20.5587 2.31607 19.7956 2 19 2ZM5 4H19C19.2652 4 19.5196 4.10536 19.7071 4.29289C19.8946 4.48043 20 4.73478 20 5V17.59L18.12 15.71C17.5773 15.1689 16.848 14.856 16.0819 14.8355C15.3157 14.8151 14.5708 15.0886 14 15.6L11.11 12.71C10.5475 12.1482 9.785 11.8326 8.99 11.8326C8.195 11.8326 7.4325 12.1482 6.87 12.71L4 15.59V5C4 4.73478 4.10536 4.48043 4.29289 4.29289C4.48043 4.10536 4.73478 4 5 4ZM5 20C4.73478 20 4.48043 19.8946 4.29289 19.7071C4.10536 19.5196 4 19.2652 4 19V18.41L8.29 14.12C8.38296 14.0263 8.49356 13.9519 8.61542 13.9011C8.73728 13.8503 8.86799 13.8242 9 13.8242C9.13201 13.8242 9.26272 13.8503 9.38458 13.9011C9.50644 13.9519 9.61704 14.0263 9.71 14.12L13.29 17.71C13.4653 17.8794 13.6964 17.979 13.94 17.99H14.07C14.3088 17.9717 14.5344 17.873 14.71 17.71L15.29 17.12C15.383 17.0263 15.4936 16.9519 15.6154 16.9011C15.7373 16.8503 15.868 16.8242 16 16.8242C16.132 16.8242 16.2627 16.8503 16.3846 16.9011C16.5064 16.9519 16.617 17.0263 16.71 17.12L19.46 19.87C19.321 19.9536 19.1622 19.9984 19 20H5ZM15.33 11.57C15.9036 11.57 16.4643 11.3999 16.9412 11.0813C17.4181 10.7626 17.7898 10.3097 18.0093 9.77978C18.2287 9.24988 18.2862 8.66678 18.1743 8.10424C18.0624 7.54169 17.7862 7.02496 17.3806 6.61939C16.975 6.21382 16.4583 5.93762 15.8958 5.82572C15.3332 5.71383 14.7501 5.77126 14.2202 5.99075C13.6903 6.21024 13.2374 6.58194 12.9187 7.05885C12.6001 7.53575 12.43 8.09643 12.43 8.67C12.43 9.43913 12.7355 10.1768 13.2794 10.7206C13.8232 11.2645 14.5609 11.57 15.33 11.57ZM15.33 7.57C15.5476 7.57 15.7602 7.63451 15.9411 7.75538C16.122 7.87625 16.263 8.04805 16.3463 8.24905C16.4295 8.45005 16.4513 8.67122 16.4089 8.8846C16.3664 9.09798 16.2617 9.29398 16.1078 9.44782C15.954 9.60166 15.758 9.70642 15.5446 9.74886C15.3312 9.79131 15.11 9.76952 14.909 9.68627C14.708 9.60301 14.5363 9.46202 14.4154 9.28113C14.2945 9.10023 14.23 8.88756 14.23 8.67C14.23 8.37826 14.3459 8.09847 14.5522 7.89218C14.7585 7.68589 15.0383 7.57 15.33 7.57Z" fill="#F48221"/>
</svg>
