<svg width="21" height="21" viewBox="0 0 21 21" fill="none" xmlns="http://www.w3.org/2000/svg">
<path d="M10.995 2.1687C9.34678 2.1687 7.73562 2.65744 6.36521 3.57312C4.9948 4.4888 3.92669 5.79029 3.29596 7.31301C2.66523 8.83572 2.5002 10.5113 2.82175 12.1278C3.14329 13.7443 3.93696 15.2292 5.1024 16.3946C6.26784 17.56 7.7527 18.3537 9.36921 18.6752C10.9857 18.9968 12.6613 18.8318 14.184 18.201C15.7067 17.5703 17.0082 16.5022 17.9239 15.1318C18.8395 13.7614 19.3283 12.1502 19.3283 10.502C19.3283 9.40769 19.1127 8.32405 18.694 7.31301C18.2752 6.30196 17.6613 5.3833 16.8875 4.60948C16.1137 3.83566 15.195 3.22183 14.184 2.80304C13.1729 2.38425 12.0893 2.1687 10.995 2.1687ZM10.995 17.1687C9.67642 17.1687 8.38748 16.7777 7.29116 16.0452C6.19483 15.3126 5.34035 14.2714 4.83576 13.0533C4.33118 11.8351 4.19915 10.4946 4.45639 9.20143C4.71362 7.90823 5.34856 6.72034 6.28091 5.78799C7.21326 4.85564 8.40115 4.2207 9.69436 3.96347C10.9876 3.70623 12.328 3.83825 13.5462 4.34284C14.7644 4.84742 15.8055 5.70191 16.5381 6.79823C17.2706 7.89456 17.6616 9.18349 17.6616 10.502C17.6616 12.2701 16.9592 13.9658 15.709 15.2161C14.4588 16.4663 12.7631 17.1687 10.995 17.1687ZM13.2533 11.577C13.4102 11.734 13.4984 11.9468 13.4984 12.1687C13.4984 12.3906 13.4102 12.6034 13.2533 12.7604C13.0964 12.9173 12.8835 13.0054 12.6616 13.0054C12.4397 13.0054 12.2269 12.9173 12.07 12.7604L10.4033 11.0937C10.3261 11.0158 10.265 10.9235 10.2235 10.822C10.182 10.7204 10.161 10.6117 10.1616 10.502V8.00203C10.1616 7.78102 10.2494 7.56906 10.4057 7.41278C10.562 7.2565 10.7739 7.1687 10.995 7.1687C11.216 7.1687 11.4279 7.2565 11.5842 7.41278C11.7405 7.56906 11.8283 7.78102 11.8283 8.00203V10.1604L13.2533 11.577Z" fill="#9B9B9B"/>
</svg>
