<svg width="20" height="21" viewBox="0 0 20 21" fill="none" xmlns="http://www.w3.org/2000/svg">
<path d="M13.9252 9.42499L10.5918 12.7583C10.5144 12.8364 10.4222 12.8984 10.3206 12.9407C10.2191 12.983 10.1102 13.0048 10.0002 13.0048C9.89014 13.0048 9.78122 12.983 9.67967 12.9407C9.57812 12.8984 9.48596 12.8364 9.40849 12.7583L6.07515 9.42499C5.99746 9.34729 5.93582 9.25505 5.89377 9.15353C5.85172 9.05201 5.83008 8.94321 5.83008 8.83332C5.83008 8.72344 5.85172 8.61464 5.89377 8.51312C5.93582 8.4116 5.99746 8.31936 6.07515 8.24166C6.15285 8.16396 6.2451 8.10233 6.34661 8.06027C6.44813 8.01822 6.55694 7.99658 6.66682 7.99658C6.7767 7.99658 6.88551 8.01822 6.98703 8.06027C7.08855 8.10233 7.18079 8.16396 7.25849 8.24166L10.0002 10.9917L12.7418 8.24166C12.8987 8.08474 13.1116 7.99658 13.3335 7.99658C13.5554 7.99658 13.7682 8.08474 13.9252 8.24166C14.0821 8.39858 14.1702 8.61141 14.1702 8.83332C14.1702 9.05524 14.0821 9.26807 13.9252 9.42499Z" fill="#9B9B9B"/>
</svg>
