<svg width="17" height="17" viewBox="0 0 17 17" fill="none" xmlns="http://www.w3.org/2000/svg">
<g id="Layer 21">
<path id="Vector" d="M3.2915 9.33334C3.2915 9.12732 3.3526 8.92592 3.46706 8.75462C3.58152 8.58332 3.7442 8.44981 3.93454 8.37097C4.12488 8.29212 4.33433 8.27149 4.53639 8.31169C4.73845 8.35188 4.92406 8.45109 5.06974 8.59677C5.21542 8.74245 5.31463 8.92806 5.35482 9.13012C5.39502 9.33218 5.37439 9.54163 5.29555 9.73197C5.2167 9.92231 5.08319 10.085 4.91189 10.1995C4.74059 10.3139 4.53919 10.375 4.33317 10.375C4.0569 10.375 3.79195 10.2653 3.5966 10.0699C3.40125 9.87456 3.2915 9.60961 3.2915 9.33334ZM4.33317 13.7083C4.53919 13.7083 4.74059 13.6472 4.91189 13.5328C5.08319 13.4183 5.2167 13.2556 5.29555 13.0653C5.37439 12.875 5.39502 12.6655 5.35482 12.4635C5.31463 12.2614 5.21542 12.0758 5.06974 11.9301C4.92406 11.7844 4.73845 11.6852 4.53639 11.645C4.33433 11.6048 4.12488 11.6255 3.93454 11.7043C3.7442 11.7831 3.58152 11.9167 3.46706 12.088C3.3526 12.2593 3.2915 12.4607 3.2915 12.6667C3.2915 12.9429 3.40125 13.2079 3.5966 13.4032C3.79195 13.5986 4.0569 13.7083 4.33317 13.7083ZM8.49984 10.375C8.70586 10.375 8.90726 10.3139 9.07856 10.1995C9.24986 10.085 9.38337 9.92231 9.46221 9.73197C9.54105 9.54163 9.56168 9.33218 9.52149 9.13012C9.4813 8.92806 9.38209 8.74245 9.23641 8.59677C9.09073 8.45109 8.90512 8.35188 8.70306 8.31169C8.50099 8.27149 8.29155 8.29212 8.10121 8.37097C7.91087 8.44981 7.74818 8.58332 7.63372 8.75462C7.51926 8.92592 7.45817 9.12732 7.45817 9.33334C7.45817 9.60961 7.56792 9.87456 7.76327 10.0699C7.95862 10.2653 8.22357 10.375 8.49984 10.375ZM8.49984 13.7083C8.70586 13.7083 8.90726 13.6472 9.07856 13.5328C9.24986 13.4183 9.38337 13.2556 9.46221 13.0653C9.54105 12.875 9.56168 12.6655 9.52149 12.4635C9.4813 12.2614 9.38209 12.0758 9.23641 11.9301C9.09073 11.7844 8.90512 11.6852 8.70306 11.645C8.50099 11.6048 8.29155 11.6255 8.10121 11.7043C7.91087 11.7831 7.74818 11.9167 7.63372 12.088C7.51926 12.2593 7.45817 12.4607 7.45817 12.6667C7.45817 12.9429 7.56792 13.2079 7.76327 13.4032C7.95862 13.5986 8.22357 13.7083 8.49984 13.7083ZM12.6665 10.375C12.8725 10.375 13.0739 10.3139 13.2452 10.1995C13.4165 10.085 13.55 9.92231 13.6289 9.73197C13.7077 9.54163 13.7283 9.33218 13.6882 9.13012C13.648 8.92806 13.5488 8.74245 13.4031 8.59677C13.2574 8.45109 13.0718 8.35188 12.8697 8.31169C12.6677 8.27149 12.4582 8.29212 12.2679 8.37097C12.0775 8.44981 11.9149 8.58332 11.8004 8.75462C11.6859 8.92592 11.6248 9.12732 11.6248 9.33334C11.6248 9.60961 11.7346 9.87456 11.9299 10.0699C12.1253 10.2653 12.3902 10.375 12.6665 10.375ZM16.8332 4.33334V14.3333C16.8332 14.9964 16.5698 15.6323 16.1009 16.1011C15.6321 16.5699 14.9962 16.8333 14.3332 16.8333H2.6665C2.00346 16.8333 1.36758 16.5699 0.898737 16.1011C0.429896 15.6323 0.166504 14.9964 0.166504 14.3333V4.33334C0.166504 3.6703 0.429896 3.03441 0.898737 2.56557C1.36758 2.09673 2.00346 1.83334 2.6665 1.83334H3.49984V1.00001C3.49984 0.778991 3.58764 0.56703 3.74392 0.410749C3.9002 0.254469 4.11216 0.166672 4.33317 0.166672C4.55418 0.166672 4.76615 0.254469 4.92243 0.410749C5.07871 0.56703 5.1665 0.778991 5.1665 1.00001V1.83334H11.8332V1.00001C11.8332 0.778991 11.921 0.56703 12.0772 0.410749C12.2335 0.254469 12.4455 0.166672 12.6665 0.166672C12.8875 0.166672 13.0995 0.254469 13.2558 0.410749C13.412 0.56703 13.4998 0.778991 13.4998 1.00001V1.83334H14.3332C14.9962 1.83334 15.6321 2.09673 16.1009 2.56557C16.5698 3.03441 16.8332 3.6703 16.8332 4.33334ZM1.83317 4.33334V5.16667H15.1665V4.33334C15.1665 4.11232 15.0787 3.90036 14.9224 3.74408C14.7661 3.5878 14.5542 3.50001 14.3332 3.50001H2.6665C2.44549 3.50001 2.23353 3.5878 2.07725 3.74408C1.92097 3.90036 1.83317 4.11232 1.83317 4.33334ZM15.1665 6.83334H1.83317V14.3333C1.83317 14.5544 1.92097 14.7663 2.07725 14.9226C2.23353 15.0789 2.44549 15.1667 2.6665 15.1667H14.3332C14.5542 15.1667 14.7661 15.0789 14.9224 14.9226C15.0787 14.7663 15.1665 14.5544 15.1665 14.3333V6.83334Z" fill="#9B9B9B"/>
</g>
</svg>
