<svg width="18" height="17" viewBox="0 0 18 17" fill="none" xmlns="http://www.w3.org/2000/svg">
<g id="Layer 19">
<path id="Vector" d="M8.99954 0.166748C7.35136 0.166748 5.74019 0.65549 4.36978 1.57117C2.99937 2.48685 1.93127 3.78834 1.30054 5.31105C0.669809 6.83377 0.504782 8.50933 0.826325 10.1258C1.14787 11.7423 1.94154 13.2272 3.10698 14.3926C4.27242 15.5581 5.75728 16.3517 7.37378 16.6733C8.99029 16.9948 10.6658 16.8298 12.1886 16.1991C13.7113 15.5683 15.0128 14.5002 15.9284 13.1298C16.8441 11.7594 17.3329 10.1483 17.3329 8.50008C17.3329 7.40573 17.1173 6.3221 16.6985 5.31105C16.2797 4.30001 15.6659 3.38135 14.8921 2.60752C14.1183 1.8337 13.1996 1.21987 12.1886 0.801085C11.1775 0.382296 10.0939 0.166748 8.99954 0.166748ZM8.99954 15.1667C7.68099 15.1667 6.39206 14.7758 5.29573 14.0432C4.19941 13.3107 3.34492 12.2695 2.84034 11.0513C2.33575 9.83313 2.20373 8.49269 2.46097 7.19948C2.7182 5.90627 3.35314 4.71839 4.28549 3.78604C5.21784 2.85369 6.40573 2.21875 7.69893 1.96151C8.99214 1.70428 10.3326 1.8363 11.5508 2.34088C12.7689 2.84547 13.8101 3.69995 14.5427 4.79628C15.2752 5.89261 15.6662 7.18154 15.6662 8.50008C15.6662 10.2682 14.9638 11.9639 13.7136 13.2141C12.4633 14.4644 10.7676 15.1667 8.99954 15.1667ZM11.2579 9.57508C11.4148 9.732 11.5029 9.94483 11.5029 10.1667C11.5029 10.3887 11.4148 10.6015 11.2579 10.7584C11.1009 10.9153 10.8881 11.0035 10.6662 11.0035C10.4443 11.0035 10.2315 10.9153 10.0745 10.7584L8.40787 9.09175C8.33063 9.01388 8.26953 8.92153 8.22806 8.82C8.18659 8.71847 8.16557 8.60975 8.1662 8.50008V6.00008C8.1662 5.77907 8.254 5.56711 8.41028 5.41083C8.56656 5.25455 8.77852 5.16675 8.99954 5.16675C9.22055 5.16675 9.43251 5.25455 9.58879 5.41083C9.74507 5.56711 9.83287 5.77907 9.83287 6.00008V8.15842L11.2579 9.57508Z" fill="#9B9B9B"/>
</g>
</svg>
