<svg width="44" height="40" viewBox="0 0 44 40" fill="none" xmlns="http://www.w3.org/2000/svg">
<rect width="44" height="40" rx="15" fill="#FF6666"/>
<path d="M25.6398 22.14C25.5663 22.2241 25.477 22.2928 25.3769 22.3424C25.2767 22.3919 25.1679 22.4212 25.0564 22.4287C24.945 22.4361 24.8331 22.4215 24.7274 22.3857C24.6216 22.3499 24.5239 22.2936 24.4398 22.22L22.9998 21V28C22.9998 28.2652 22.8945 28.5195 22.7069 28.7071C22.5194 28.8946 22.265 29 21.9998 29C21.7346 29 21.4803 28.8946 21.2927 28.7071C21.1052 28.5195 20.9998 28.2652 20.9998 28V21L19.6098 22.22C19.5258 22.2936 19.4281 22.3499 19.3223 22.3857C19.2165 22.4215 19.1047 22.4361 18.9933 22.4287C18.8818 22.4212 18.7729 22.3919 18.6728 22.3424C18.5727 22.2928 18.4833 22.2241 18.4098 22.14C18.3356 22.0559 18.2789 21.9578 18.2432 21.8515C18.2074 21.7452 18.1933 21.6328 18.2017 21.521C18.2101 21.4091 18.2408 21.3001 18.292 21.2003C18.3432 21.1005 18.4139 21.012 18.4998 20.94L21.4998 18.36L21.5898 18.3L21.7398 18.22H21.8998H22.0598H22.2198H22.3698L22.5198 18.3L22.6098 18.36L25.6098 20.94C25.7726 21.0953 25.8672 21.3088 25.8729 21.5338C25.8785 21.7587 25.7947 21.9767 25.6398 22.14ZM27.9298 15.92C27.4787 14.6264 26.6391 13.5037 25.5258 12.7054C24.4125 11.9071 23.0797 11.4721 21.7098 11.46C19.9891 11.4741 18.3365 12.1344 17.0798 13.31C16.4586 13.8851 15.961 14.5807 15.6172 15.3543C15.2733 16.1279 15.0905 16.9634 15.0798 17.81C14.2081 17.9035 13.3955 18.2957 12.7798 18.92C12.0765 19.6628 11.6846 20.647 11.6846 21.67C11.6846 22.693 12.0765 23.6771 12.7798 24.42C13.1301 24.7859 13.5507 25.0773 14.0164 25.2766C14.4821 25.4759 14.9833 25.5791 15.4898 25.58H17.5998C17.865 25.58 18.1194 25.4746 18.3069 25.2871C18.4945 25.0995 18.5998 24.8452 18.5998 24.58C18.5998 24.3147 18.4945 24.0604 18.3069 23.8729C18.1194 23.6853 17.865 23.58 17.5998 23.58H15.4598C15.2188 23.5724 14.9816 23.5173 14.7619 23.4177C14.5423 23.3182 14.3444 23.1762 14.1798 23C13.8345 22.6311 13.6416 22.1452 13.6398 21.64C13.6359 21.1366 13.8298 20.6518 14.1798 20.29C14.3442 20.1155 14.5426 19.9767 14.7627 19.8821C14.9829 19.7875 15.2202 19.7391 15.4598 19.74C15.626 19.7224 15.7936 19.7224 15.9598 19.74C16.1205 19.7721 16.2866 19.7643 16.4435 19.7173C16.6005 19.6702 16.7434 19.5853 16.8598 19.47C16.9751 19.3535 17.06 19.2106 17.1071 19.0536C17.1542 18.8967 17.162 18.7306 17.1298 18.57C17.1298 18.57 17.1298 18.48 17.1298 18.37V18.21V18.13C17.1298 18.02 17.1298 17.92 17.1298 17.81C17.1359 17.2254 17.2624 16.6484 17.5016 16.115C17.7408 15.5816 18.0874 15.1033 18.5198 14.71C19.4071 13.8789 20.5742 13.4114 21.7898 13.4C22.7879 13.4127 23.7555 13.7449 24.551 14.3478C25.3464 14.9507 25.9278 15.7925 26.2098 16.75C26.2098 17.0152 26.3152 17.2695 26.5027 17.4571C26.6903 17.6446 26.9446 17.75 27.2098 17.75H27.2598C27.999 17.7761 28.6983 18.0915 29.2071 18.6284C29.7159 19.1652 29.9934 19.8805 29.9798 20.62C29.9765 21.3678 29.6825 22.085 29.1598 22.62C28.9092 22.8828 28.6084 23.0926 28.2751 23.2369C27.9419 23.3812 27.583 23.4571 27.2198 23.46H26.5398C26.2746 23.46 26.0203 23.5653 25.8327 23.7529C25.6452 23.9404 25.5398 24.1947 25.5398 24.46C25.5398 24.7252 25.6452 24.9795 25.8327 25.1671C26.0203 25.3546 26.2746 25.46 26.5398 25.46H27.2198C27.8508 25.4575 28.4749 25.3288 29.0554 25.0815C29.6358 24.8342 30.161 24.4733 30.5998 24.02C31.4925 23.0982 31.988 21.8631 31.9798 20.58C31.9568 19.452 31.5389 18.3679 30.7989 17.5164C30.0588 16.6649 29.0435 16.1 27.9298 15.92Z" fill="white"/>
</svg>
