<svg width="44" height="40" viewBox="0 0 44 40" fill="none" xmlns="http://www.w3.org/2000/svg">
<rect width="44" height="40" rx="15" fill="#009F8F"/>
<path d="M25.6198 24.86C25.6928 24.9446 25.7484 25.0428 25.7834 25.149C25.8184 25.2551 25.8321 25.3672 25.8237 25.4786C25.8154 25.5901 25.7851 25.6988 25.7347 25.7986C25.6843 25.8983 25.6146 25.9871 25.5298 26.06L22.5298 28.64C22.4988 28.6636 22.4653 28.6837 22.4298 28.7C22.3832 28.7325 22.3329 28.7594 22.2798 28.78H22.1298H21.9698H21.8098H21.6598C21.6068 28.7594 21.5564 28.7325 21.5098 28.7C21.4744 28.6837 21.4409 28.6636 21.4098 28.64L18.4098 26.06C18.315 25.9905 18.2357 25.9022 18.1767 25.8005C18.1178 25.6989 18.0806 25.5861 18.0674 25.4693C18.0543 25.3526 18.0655 25.2343 18.1003 25.1221C18.1352 25.0099 18.1929 24.9061 18.2699 24.8173C18.3469 24.7286 18.4415 24.6567 18.5476 24.6063C18.6538 24.5559 18.7692 24.5281 18.8867 24.5246C19.0041 24.5211 19.121 24.542 19.23 24.5859C19.339 24.6299 19.4377 24.6959 19.5198 24.78L20.9998 26V19C20.9998 18.7347 21.1052 18.4804 21.2927 18.2929C21.4803 18.1053 21.7346 18 21.9998 18C22.265 18 22.5194 18.1053 22.7069 18.2929C22.8945 18.4804 22.9998 18.7347 22.9998 19V26L24.4198 24.77C24.5045 24.697 24.6027 24.6414 24.7089 24.6064C24.815 24.5714 24.927 24.5577 25.0385 24.5661C25.15 24.5744 25.2587 24.6047 25.3584 24.6551C25.4582 24.7055 25.547 24.7752 25.6198 24.86ZM27.9298 13.92C27.4787 12.6264 26.6391 11.5037 25.5258 10.7054C24.4125 9.90712 23.0797 9.47214 21.7098 9.45996C19.9891 9.47409 18.3365 10.1344 17.0798 11.31C16.4586 11.8851 15.961 12.5807 15.6172 13.3543C15.2733 14.1279 15.0905 14.9634 15.0798 15.81C14.2081 15.9035 13.3955 16.2957 12.7798 16.92C12.0765 17.6628 11.6846 18.647 11.6846 19.67C11.6846 20.693 12.0765 21.6771 12.7798 22.42C13.1301 22.7859 13.5507 23.0773 14.0164 23.2766C14.4821 23.4759 14.9833 23.5791 15.4898 23.58H17.5998C17.865 23.58 18.1194 23.4746 18.3069 23.2871C18.4945 23.0995 18.5998 22.8452 18.5998 22.58C18.5998 22.3147 18.4945 22.0604 18.3069 21.8729C18.1194 21.6853 17.865 21.58 17.5998 21.58H15.4598C15.2188 21.5724 14.9816 21.5173 14.7619 21.4177C14.5423 21.3182 14.3444 21.1762 14.1798 21C13.8345 20.6311 13.6416 20.1452 13.6398 19.64C13.6359 19.1366 13.8298 18.6518 14.1798 18.29C14.3442 18.1155 14.5426 17.9767 14.7627 17.8821C14.9829 17.7875 15.2202 17.7391 15.4598 17.74C15.626 17.7224 15.7936 17.7224 15.9598 17.74C16.1205 17.7721 16.2866 17.7643 16.4435 17.7173C16.6005 17.6702 16.7434 17.5853 16.8598 17.47C16.9751 17.3535 17.06 17.2106 17.1071 17.0536C17.1542 16.8967 17.162 16.7306 17.1298 16.57C17.1298 16.57 17.1298 16.48 17.1298 16.37V16.21V16.19C17.1298 16.08 17.1298 15.98 17.1298 15.87C17.1359 15.2854 17.2624 14.7084 17.5016 14.175C17.7408 13.6416 18.0874 13.1633 18.5198 12.77C19.4071 11.9389 20.5742 11.4714 21.7898 11.46C22.7879 11.4727 23.7555 11.8049 24.551 12.4078C25.3464 13.0107 25.9278 13.8525 26.2098 14.81C26.2098 15.0752 26.3152 15.3295 26.5027 15.5171C26.6903 15.7046 26.9446 15.81 27.2098 15.81H27.2598C27.999 15.8361 28.6983 16.1515 29.2071 16.6884C29.7159 17.2252 29.9934 17.9405 29.9798 18.68C29.9765 19.4278 29.6825 20.145 29.1598 20.68C28.9092 20.9428 28.6084 21.1526 28.2751 21.2969C27.9419 21.4412 27.583 21.5171 27.2198 21.52H26.5398C26.2746 21.52 26.0203 21.6253 25.8327 21.8129C25.6452 22.0004 25.5398 22.2547 25.5398 22.52C25.5398 22.7852 25.6452 23.0395 25.8327 23.2271C26.0203 23.4146 26.2746 23.52 26.5398 23.52H27.2198C27.8508 23.5175 28.4749 23.3888 29.0554 23.1415C29.6358 22.8942 30.161 22.5333 30.5998 22.08C31.4925 21.1582 31.988 19.9231 31.9798 18.64C31.9708 17.5017 31.5592 16.4033 30.818 15.5394C30.0767 14.6754 29.0536 14.1018 27.9298 13.92Z" fill="white"/>
</svg>
