<svg width="44" height="40" viewBox="0 0 44 40" fill="none" xmlns="http://www.w3.org/2000/svg">
<rect width="44" height="40" rx="15" fill="#009F8F"/>
<path fill-rule="evenodd" clip-rule="evenodd" d="M14.8001 10.4C15.1184 10.4 15.4236 10.5265 15.6486 10.7515C15.8737 10.9765 16.0001 11.2818 16.0001 11.6V14.1212C16.9985 13.1028 18.2398 12.3552 19.607 11.949C20.9742 11.5427 22.4222 11.4912 23.8148 11.7992C25.2074 12.1073 26.4987 12.7647 27.567 13.7096C28.6353 14.6546 29.4455 15.8559 29.9213 17.2004C29.979 17.3501 30.0061 17.5099 30.001 17.6703C29.9959 17.8306 29.9587 17.9884 29.8916 18.1341C29.8245 18.2798 29.7288 18.4106 29.6103 18.5188C29.4917 18.6269 29.3527 18.7101 29.2014 18.7636C29.0501 18.817 28.8896 18.8396 28.7295 18.83C28.5693 18.8203 28.4127 18.7786 28.2689 18.7074C28.1252 18.6362 27.9971 18.5368 27.8924 18.4153C27.7877 18.2937 27.7084 18.1524 27.6593 17.9996C27.2971 16.9758 26.6638 16.0694 25.8271 15.3771C24.9904 14.6848 23.9815 14.2324 22.908 14.0683C21.8344 13.9041 20.7365 14.0343 19.7311 14.4449C18.7257 14.8555 17.8505 15.5312 17.1989 16.4H20.8001C21.1184 16.4 21.4236 16.5265 21.6486 16.7515C21.8737 16.9765 22.0001 17.2818 22.0001 17.6C22.0001 17.9183 21.8737 18.2235 21.6486 18.4486C21.4236 18.6736 21.1184 18.8 20.8001 18.8H14.8001C14.4818 18.8 14.1766 18.6736 13.9516 18.4486C13.7265 18.2235 13.6001 17.9183 13.6001 17.6V11.6C13.6001 11.2818 13.7265 10.9765 13.9516 10.7515C14.1766 10.5265 14.4818 10.4 14.8001 10.4ZM14.8097 21.2684C14.9583 21.2159 15.1158 21.1932 15.2732 21.2016C15.4305 21.21 15.5847 21.2493 15.7269 21.3173C15.8691 21.3852 15.9965 21.4806 16.1019 21.5978C16.2072 21.715 16.2884 21.8518 16.3409 22.0004C16.7031 23.0242 17.3364 23.9306 18.1731 24.6229C19.0098 25.3153 20.0187 25.7676 21.0922 25.9318C22.1658 26.0959 23.2637 25.9658 24.2691 25.5551C25.2745 25.1445 26.1496 24.4688 26.8013 23.6H23.2001C22.8818 23.6 22.5766 23.4736 22.3516 23.2486C22.1265 23.0235 22.0001 22.7183 22.0001 22.4C22.0001 22.0818 22.1265 21.7765 22.3516 21.5515C22.5766 21.3265 22.8818 21.2 23.2001 21.2H29.2001C29.5184 21.2 29.8236 21.3265 30.0486 21.5515C30.2737 21.7765 30.4001 22.0818 30.4001 22.4V28.4C30.4001 28.7183 30.2737 29.0235 30.0486 29.2486C29.8236 29.4736 29.5184 29.6 29.2001 29.6C28.8818 29.6 28.5766 29.4736 28.3516 29.2486C28.1265 29.0235 28.0001 28.7183 28.0001 28.4V25.8788C27.0016 26.8973 25.7604 27.6449 24.3932 28.0511C23.026 28.4573 21.578 28.5088 20.1854 28.2008C18.7928 27.8928 17.5015 27.2354 16.4332 26.2904C15.3649 25.3455 14.5547 24.1442 14.0789 22.7996C14.0264 22.651 14.0037 22.4935 14.0121 22.3362C14.0205 22.1788 14.0598 22.0246 14.1277 21.8824C14.1957 21.7402 14.291 21.6128 14.4083 21.5075C14.5255 21.4021 14.6623 21.3209 14.8109 21.2684H14.8097Z" fill="white"/>
</svg>
