<svg width="12" height="14" viewBox="0 0 12 14" fill="none" xmlns="http://www.w3.org/2000/svg">
<path d="M9.93429 4.94118H8.57143V0.823529C8.57143 0.370588 8.18571 0 7.71429 0H4.28571C3.81429 0 3.42857 0.370588 3.42857 0.823529V4.94118H2.06571C1.30286 4.94118 0.917143 5.83059 1.45714 6.34941L5.39143 10.1294C5.72571 10.4506 6.26571 10.4506 6.6 10.1294L10.5343 6.34941C11.0743 5.83059 10.6971 4.94118 9.93429 4.94118ZM0 13.1765C0 13.6294 0.385714 14 0.857143 14H11.1429C11.6143 14 12 13.6294 12 13.1765C12 12.7235 11.6143 12.3529 11.1429 12.3529H0.857143C0.385714 12.3529 0 12.7235 0 13.1765Z" fill="#555555"/>
</svg>
