<svg width="36" height="36" viewBox="0 0 36 36" fill="none" xmlns="http://www.w3.org/2000/svg">
<path d="M18 0C14.4399 0 10.9598 1.05568 7.99974 3.03355C5.03966 5.01141 2.73255 7.82263 1.37018 11.1117C0.00779911 14.4008 -0.348661 18.02 0.345873 21.5116C1.04041 25.0033 2.75474 28.2106 5.27209 30.7279C7.78943 33.2453 10.9967 34.9596 14.4884 35.6541C17.98 36.3487 21.5992 35.9922 24.8883 34.6298C28.1774 33.2675 30.9886 30.9603 32.9665 28.0003C34.9443 25.0402 36 21.5601 36 18C36 15.6362 35.5344 13.2956 34.6298 11.1117C33.7253 8.92784 32.3994 6.94353 30.7279 5.27208C29.0565 3.60062 27.0722 2.27475 24.8883 1.37017C22.7044 0.465584 20.3638 0 18 0ZM18 32.4C15.152 32.4 12.3679 31.5554 9.99979 29.9732C7.63173 28.3909 5.78604 26.1419 4.69614 23.5106C3.60624 20.8794 3.32107 17.984 3.8767 15.1907C4.43233 12.3974 5.80379 9.83154 7.81767 7.81766C9.83154 5.80379 12.3974 4.43232 15.1907 3.87669C17.984 3.32106 20.8794 3.60623 23.5106 4.69613C26.1419 5.78604 28.3909 7.63172 29.9732 9.99979C31.5555 12.3679 32.4 15.1519 32.4 18C32.4 21.8191 30.8829 25.4818 28.1823 28.1823C25.4818 30.8829 21.8191 32.4 18 32.4ZM12.6 17.1C12.066 17.1 11.544 16.9416 11.1 16.645C10.656 16.3483 10.3099 15.9266 10.1055 15.4332C9.90117 14.9399 9.84771 14.397 9.95189 13.8733C10.0561 13.3495 10.3132 12.8684 10.6908 12.4908C11.0684 12.1132 11.5495 11.8561 12.0733 11.7519C12.597 11.6477 13.1399 11.7012 13.6333 11.9055C14.1266 12.1099 14.5483 12.4559 14.845 12.9C15.1417 13.344 15.3 13.866 15.3 14.4C15.3 15.1161 15.0155 15.8028 14.5092 16.3092C14.0028 16.8155 13.3161 17.1 12.6 17.1ZM26.1 14.4C26.1 14.934 25.9417 15.456 25.645 15.9C25.3483 16.344 24.9266 16.6901 24.4333 16.8945C23.9399 17.0988 23.397 17.1523 22.8733 17.0481C22.3495 16.9439 21.8684 16.6868 21.4908 16.3092C21.1132 15.9316 20.8561 15.4505 20.7519 14.9267C20.6477 14.403 20.7012 13.8601 20.9055 13.3668C21.1099 12.8734 21.456 12.4517 21.9 12.155C22.344 11.8583 22.866 11.7 23.4 11.7C24.1161 11.7 24.8028 11.9845 25.3092 12.4908C25.8155 12.9972 26.1 13.6839 26.1 14.4ZM25.2 23.4C25.2 23.8774 25.0104 24.3352 24.6728 24.6728C24.3352 25.0104 23.8774 25.2 23.4 25.2H12.6C12.1226 25.2 11.6648 25.0104 11.3272 24.6728C10.9896 24.3352 10.8 23.8774 10.8 23.4C10.8 22.9226 10.9896 22.4648 11.3272 22.1272C11.6648 21.7896 12.1226 21.6 12.6 21.6H23.4C23.8774 21.6 24.3352 21.7896 24.6728 22.1272C25.0104 22.4648 25.2 22.9226 25.2 23.4Z" fill="white"/>
</svg>
