<svg width="36" height="36" viewBox="0 0 36 36" fill="none" xmlns="http://www.w3.org/2000/svg">
<path d="M24.552 13.248C24.8554 13.5547 25.0256 13.9686 25.0256 14.4C25.0256 14.8314 24.8554 15.2453 24.552 15.552L17.352 22.752C17.0453 23.0554 16.6314 23.2255 16.2 23.2255C15.7686 23.2255 15.3547 23.0554 15.048 22.752L11.448 19.152C11.1928 18.8375 11.0633 18.4395 11.0843 18.0351C11.1053 17.6306 11.2754 17.2482 11.5618 16.9618C11.8482 16.6754 12.2306 16.5053 12.6351 16.4843C13.0395 16.4633 13.4375 16.5928 13.752 16.848L16.2 19.314L22.248 13.248C22.5547 12.9446 22.9686 12.7744 23.4 12.7744C23.8314 12.7744 24.2453 12.9446 24.552 13.248ZM36 18C36 21.5601 34.9443 25.0402 32.9665 28.0003C30.9886 30.9603 28.1774 33.2675 24.8883 34.6298C21.5992 35.9922 17.98 36.3487 14.4884 35.6541C10.9967 34.9596 7.78943 33.2453 5.27209 30.7279C2.75474 28.2106 1.04041 25.0033 0.345873 21.5116C-0.348661 18.02 0.00779911 14.4008 1.37018 11.1117C2.73255 7.82263 5.03966 5.01141 7.99974 3.03355C10.9598 1.05568 14.4399 0 18 0C20.3638 0 22.7044 0.465584 24.8883 1.37017C27.0722 2.27475 29.0565 3.60062 30.7279 5.27208C32.3994 6.94353 33.7253 8.92784 34.6298 11.1117C35.5344 13.2956 36 15.6362 36 18ZM32.4 18C32.4 15.1519 31.5555 12.3679 29.9732 9.99979C28.3909 7.63172 26.1419 5.78604 23.5106 4.69613C20.8794 3.60623 17.984 3.32106 15.1907 3.87669C12.3974 4.43232 9.83154 5.80379 7.81767 7.81766C5.80379 9.83154 4.43233 12.3974 3.8767 15.1907C3.32107 17.984 3.60624 20.8794 4.69614 23.5106C5.78604 26.1419 7.63173 28.3909 9.99979 29.9732C12.3679 31.5554 15.152 32.4 18 32.4C21.8191 32.4 25.4818 30.8829 28.1823 28.1823C30.8829 25.4818 32.4 21.8191 32.4 18Z" fill="white"/>
</svg>
