<svg width="36" height="31" viewBox="0 0 36 31" fill="none" xmlns="http://www.w3.org/2000/svg">
<path d="M9 18C10.424 18 11.8161 17.5777 13.0001 16.7866C14.1841 15.9954 15.107 14.871 15.6519 13.5553C16.1969 12.2397 16.3395 10.792 16.0617 9.39535C15.7838 7.99869 15.0981 6.71577 14.0912 5.70883C13.0842 4.7019 11.8013 4.01616 10.4046 3.73835C9.00799 3.46054 7.56031 3.60312 6.24468 4.14807C4.92905 4.69302 3.80456 5.61586 3.01342 6.7999C2.22227 7.98393 1.8 9.37598 1.8 10.8C1.8 12.7096 2.55857 14.5409 3.90883 15.8912C5.25909 17.2414 7.09044 18 9 18ZM9 7.2C9.71201 7.2 10.408 7.41114 11.0001 7.80671C11.5921 8.20229 12.0535 8.76453 12.326 9.42234C12.5984 10.0802 12.6697 10.804 12.5308 11.5023C12.3919 12.2007 12.0491 12.8421 11.5456 13.3456C11.0421 13.8491 10.4007 14.1919 9.70232 14.3308C9.00399 14.4697 8.28015 14.3984 7.62234 14.126C6.96453 13.8535 6.40228 13.3921 6.00671 12.8001C5.61114 12.208 5.4 11.512 5.4 10.8C5.4 9.84522 5.77928 8.92955 6.45442 8.25442C7.12955 7.57929 8.04522 7.2 9 7.2ZM18 25.2V28.8C18 29.2774 17.8104 29.7352 17.4728 30.0728C17.1352 30.4104 16.6774 30.6 16.2 30.6C15.7226 30.6 15.2648 30.4104 14.9272 30.0728C14.5896 29.7352 14.4 29.2774 14.4 28.8V25.2C14.4 24.7226 14.2104 24.2648 13.8728 23.9272C13.5352 23.5896 13.0774 23.4 12.6 23.4H5.4C4.92261 23.4 4.46477 23.5896 4.12721 23.9272C3.78964 24.2648 3.6 24.7226 3.6 25.2V28.8C3.6 29.2774 3.41036 29.7352 3.07279 30.0728C2.73523 30.4104 2.27739 30.6 1.8 30.6C1.32261 30.6 0.864773 30.4104 0.527208 30.0728C0.189642 29.7352 0 29.2774 0 28.8V25.2C0 23.7678 0.568927 22.3943 1.58162 21.3816C2.59432 20.3689 3.96783 19.8 5.4 19.8H12.6C14.0322 19.8 15.4057 20.3689 16.4184 21.3816C17.4311 22.3943 18 23.7678 18 25.2ZM27 14.4C28.424 14.4 29.8161 13.9777 31.0001 13.1866C32.1841 12.3954 33.107 11.271 33.6519 9.95533C34.1969 8.6397 34.3395 7.19202 34.0617 5.79535C33.7838 4.39869 33.0981 3.11577 32.0912 2.10883C31.0842 1.1019 29.8013 0.416163 28.4046 0.138349C27.008 -0.139464 25.5603 0.00311962 24.2447 0.548071C22.9291 1.09302 21.8046 2.01586 21.0134 3.1999C20.2223 4.38393 19.8 5.77598 19.8 7.2C19.8 9.10956 20.5586 10.9409 21.9088 12.2912C23.2591 13.6414 25.0904 14.4 27 14.4ZM27 3.6C27.712 3.6 28.408 3.81114 29.0001 4.20671C29.5921 4.60229 30.0535 5.16453 30.326 5.82234C30.5984 6.48016 30.6697 7.204 30.5308 7.90233C30.3919 8.60066 30.0491 9.24212 29.5456 9.74559C29.0421 10.2491 28.4007 10.5919 27.7023 10.7308C27.004 10.8697 26.2802 10.7984 25.6223 10.526C24.9645 10.2535 24.4023 9.79207 24.0067 9.20006C23.6111 8.60804 23.4 7.91202 23.4 7.2C23.4 6.24522 23.7793 5.32955 24.4544 4.65442C25.1295 3.97929 26.0452 3.6 27 3.6ZM36 21.6V25.2C36 25.6774 35.8104 26.1352 35.4728 26.4728C35.1352 26.8104 34.6774 27 34.2 27C33.7226 27 33.2648 26.8104 32.9272 26.4728C32.5896 26.1352 32.4 25.6774 32.4 25.2V21.6C32.4 21.1226 32.2104 20.6648 31.8728 20.3272C31.5352 19.9896 31.0774 19.8 30.6 19.8H23.4C23.0908 19.801 22.787 19.8815 22.518 20.034C22.2112 20.2045 21.9609 20.4611 21.798 20.772C21.6914 20.987 21.5429 21.1784 21.3613 21.3352C21.1796 21.4919 20.9685 21.6108 20.7402 21.6847C20.512 21.7587 20.2712 21.7863 20.0322 21.7658C19.7931 21.7454 19.5605 21.6774 19.3481 21.5658C19.1357 21.4542 18.9478 21.3013 18.7954 21.116C18.6429 20.9307 18.5291 20.7168 18.4605 20.4869C18.3919 20.257 18.37 20.0157 18.396 19.7772C18.422 19.5386 18.4955 19.3077 18.612 19.098C19.1009 18.1713 19.844 17.4033 20.754 16.884C21.5628 16.4329 22.4739 16.1973 23.4 16.2H30.6C32.0322 16.2 33.4057 16.7689 34.4184 17.7816C35.4311 18.7943 36 20.1678 36 21.6Z" fill="white"/>
</svg>
