<svg width="36" height="36" viewBox="0 0 36 36" fill="none" xmlns="http://www.w3.org/2000/svg">
<path d="M18 0C14.4399 0 10.9598 1.05568 7.99974 3.03355C5.03966 5.01141 2.73255 7.82263 1.37018 11.1117C0.00779911 14.4008 -0.348661 18.02 0.345873 21.5116C1.04041 25.0033 2.75474 28.2106 5.27209 30.7279C7.78943 33.2453 10.9967 34.9596 14.4884 35.6541C17.98 36.3487 21.5992 35.9922 24.8883 34.6298C28.1774 33.2675 30.9886 30.9603 32.9665 28.0003C34.9443 25.0402 36 21.5601 36 18C36 15.6362 35.5344 13.2956 34.6298 11.1117C33.7253 8.92784 32.3994 6.94353 30.7279 5.27208C29.0565 3.60062 27.0722 2.27475 24.8883 1.37017C22.7044 0.465584 20.3638 0 18 0ZM18 32.4C15.152 32.4 12.3679 31.5554 9.99979 29.9732C7.63173 28.3909 5.78604 26.1419 4.69614 23.5106C3.60624 20.8794 3.32107 17.984 3.8767 15.1907C4.43233 12.3974 5.80379 9.83154 7.81767 7.81766C9.83154 5.80379 12.3974 4.43232 15.1907 3.87669C17.984 3.32106 20.8794 3.60623 23.5106 4.69613C26.1419 5.78604 28.3909 7.63172 29.9732 9.99979C31.5555 12.3679 32.4 15.1519 32.4 18C32.4 21.8191 30.8829 25.4818 28.1823 28.1823C25.4818 30.8829 21.8191 32.4 18 32.4ZM9.90001 14.4C9.90001 13.866 10.0584 13.344 10.355 12.9C10.6517 12.4559 11.0734 12.1099 11.5668 11.9055C12.0601 11.7012 12.603 11.6477 13.1267 11.7519C13.6505 11.8561 14.1316 12.1132 14.5092 12.4908C14.8868 12.8684 15.1439 13.3495 15.2481 13.8733C15.3523 14.397 15.2988 14.9399 15.0945 15.4332C14.8901 15.9266 14.5441 16.3483 14.1 16.645C13.656 16.9416 13.134 17.1 12.6 17.1C11.8839 17.1 11.1972 16.8155 10.6908 16.3092C10.1845 15.8028 9.90001 15.1161 9.90001 14.4ZM26.1 14.4C26.1 14.934 25.9417 15.456 25.645 15.9C25.3483 16.344 24.9266 16.6901 24.4333 16.8945C23.9399 17.0988 23.397 17.1523 22.8733 17.0481C22.3495 16.9439 21.8684 16.6868 21.4908 16.3092C21.1132 15.9316 20.8561 15.4505 20.7519 14.9267C20.6477 14.403 20.7012 13.8601 20.9055 13.3668C21.1099 12.8734 21.456 12.4517 21.9 12.155C22.344 11.8583 22.866 11.7 23.4 11.7C24.1161 11.7 24.8028 11.9845 25.3092 12.4908C25.8155 12.9972 26.1 13.6839 26.1 14.4ZM25.2 24.048C25.3194 24.2241 25.4029 24.422 25.4458 24.6304C25.4887 24.8387 25.4901 25.0535 25.45 25.2625C25.4099 25.4714 25.329 25.6704 25.212 25.8481C25.095 26.0257 24.9441 26.1786 24.768 26.298C24.5916 26.4189 24.3928 26.5033 24.1833 26.5461C23.9738 26.589 23.7578 26.5894 23.5481 26.5475C23.3384 26.5056 23.1392 26.4221 22.9623 26.3019C22.7854 26.1818 22.6343 26.0274 22.518 25.848C22.0254 25.1054 21.3567 24.4963 20.5716 24.0749C19.7864 23.6535 18.9091 23.433 18.018 23.433C17.1269 23.433 16.2496 23.6535 15.4645 24.0749C14.6793 24.4963 14.0106 25.1054 13.518 25.848C13.4017 26.0274 13.2506 26.1818 13.0737 26.3019C12.8968 26.4221 12.6976 26.5056 12.4879 26.5475C12.2782 26.5894 12.0622 26.589 11.8527 26.5461C11.6432 26.5033 11.4444 26.4189 11.268 26.298C11.089 26.1814 10.9348 26.0306 10.8144 25.8543C10.6939 25.6779 10.6095 25.4795 10.566 25.2703C10.5225 25.0612 10.5208 24.8456 10.5609 24.6358C10.6011 24.426 10.6823 24.2263 10.8 24.048C11.5867 22.8748 12.6501 21.9134 13.8964 21.2486C15.1427 20.5838 16.5335 20.236 17.946 20.236C19.3585 20.236 20.7493 20.5838 21.9956 21.2486C23.2419 21.9134 24.3053 22.8748 25.092 24.048H25.2Z" fill="white"/>
</svg>
