<svg width="36" height="36" viewBox="0 0 36 36" fill="none" xmlns="http://www.w3.org/2000/svg">
<path d="M30 0H14C12.4087 0 10.8826 0.632141 9.75736 1.75736C8.63214 2.88258 8 4.4087 8 6V8H6C4.4087 8 2.88258 8.63214 1.75736 9.75736C0.632141 10.8826 0 12.4087 0 14V30C0 31.5913 0.632141 33.1174 1.75736 34.2426C2.88258 35.3679 4.4087 36 6 36H22C23.5913 36 25.1174 35.3679 26.2426 34.2426C27.3679 33.1174 28 31.5913 28 30V28H30C31.5913 28 33.1174 27.3679 34.2426 26.2426C35.3679 25.1174 36 23.5913 36 22V6C36 4.4087 35.3679 2.88258 34.2426 1.75736C33.1174 0.632141 31.5913 0 30 0ZM24 30C24 30.5304 23.7893 31.0391 23.4142 31.4142C23.0391 31.7893 22.5304 32 22 32H6C5.46957 32 4.96086 31.7893 4.58579 31.4142C4.21071 31.0391 4 30.5304 4 30V14C4 13.4696 4.21071 12.9609 4.58579 12.5858C4.96086 12.2107 5.46957 12 6 12H22C22.5304 12 23.0391 12.2107 23.4142 12.5858C23.7893 12.9609 24 13.4696 24 14V30ZM32 22C32 22.5304 31.7893 23.0391 31.4142 23.4142C31.0391 23.7893 30.5304 24 30 24H28V14C28 12.4087 27.3679 10.8826 26.2426 9.75736C25.1174 8.63214 23.5913 8 22 8H12V6C12 5.46957 12.2107 4.96086 12.5858 4.58579C12.9609 4.21071 13.4696 4 14 4H30C30.5304 4 31.0391 4.21071 31.4142 4.58579C31.7893 4.96086 32 5.46957 32 6V22Z" fill="white"/>
</svg>
